<svg width="18" height="19" viewBox="0 0 18 19" fill="none" xmlns="http://www.w3.org/2000/svg">
<path d="M12.2143 8.44714C12.2143 7.2083 11.774 6.14859 10.8934 5.26801C10.0128 4.38743 8.95309 3.94714 7.71425 3.94714C6.47541 3.94714 5.4157 4.38743 4.53512 5.26801C3.65454 6.14859 3.21425 7.2083 3.21425 8.44714C3.21425 9.68598 3.65454 10.7457 4.53512 11.6263C5.4157 12.5068 6.47541 12.9471 7.71425 12.9471C8.95309 12.9471 10.0128 12.5068 10.8934 11.6263C11.774 10.7457 12.2143 9.68598 12.2143 8.44714ZM17.3571 16.8043C17.3571 17.1525 17.2299 17.4538 16.9754 17.7083C16.7209 17.9628 16.4196 18.09 16.0714 18.09C15.7098 18.09 15.4084 17.9628 15.1674 17.7083L11.7221 14.273C10.5234 15.1034 9.18746 15.5186 7.71425 15.5186C6.75666 15.5186 5.84092 15.3327 4.96704 14.9611C4.09316 14.5894 3.33981 14.0872 2.707 13.4544C2.07418 12.8216 1.57195 12.0682 1.2003 11.1943C0.828648 10.3205 0.642822 9.40473 0.642822 8.44714C0.642822 7.48955 0.828648 6.57381 1.2003 5.69993C1.57195 4.82604 2.07418 4.0727 2.707 3.43988C3.33981 2.80707 4.09316 2.30484 4.96704 1.93319C5.84092 1.56154 6.75666 1.37571 7.71425 1.37571C8.67184 1.37571 9.58758 1.56154 10.4615 1.93319C11.3353 2.30484 12.0887 2.80707 12.7215 3.43988C13.3543 4.0727 13.8566 4.82604 14.2282 5.69993C14.5999 6.57381 14.7857 7.48955 14.7857 8.44714C14.7857 9.92035 14.3705 11.2563 13.5401 12.455L16.9855 15.9003C17.2332 16.148 17.3571 16.4494 17.3571 16.8043Z" fill="white"/>
</svg>
