<svg width="76" height="22" viewBox="0 0 76 22" fill="none" xmlns="http://www.w3.org/2000/svg">
<path d="M17.9871 3.375C18.5848 3.375 19.1121 3.90234 19.1121 4.53516V18C19.1121 18.6328 18.5848 19.125 17.9871 19.125H4.45195C3.8543 19.125 3.36211 18.6328 3.36211 18V4.53516C3.36211 3.90234 3.8543 3.375 4.45195 3.375H17.9871ZM8.1082 16.875V9.38672H5.78789V16.875H8.1082ZM6.94805 8.33203C7.68633 8.33203 8.28398 7.73438 8.28398 6.99609C8.28398 6.25781 7.68633 5.625 6.94805 5.625C6.17461 5.625 5.57695 6.25781 5.57695 6.99609C5.57695 7.73438 6.17461 8.33203 6.94805 8.33203ZM16.8621 16.875V12.7617C16.8621 10.7578 16.4051 9.17578 14.0496 9.17578C12.9246 9.17578 12.1512 9.80859 11.8348 10.4062H11.7996V9.38672H9.58477V16.875H11.9051V13.1836C11.9051 12.1992 12.0809 11.25 13.3113 11.25C14.5066 11.25 14.5066 12.375 14.5066 13.2188V16.875H16.8621Z" fill="#F35C27"/>
<path d="M37.837 7.20703C40.0518 7.20703 41.8799 9.03516 41.8799 11.25C41.8799 13.5 40.0518 15.293 37.837 15.293C35.587 15.293 33.794 13.5 33.794 11.25C33.794 9.03516 35.587 7.20703 37.837 7.20703ZM37.837 13.8867C39.2784 13.8867 40.4385 12.7266 40.4385 11.25C40.4385 9.80859 39.2784 8.64844 37.837 8.64844C36.3604 8.64844 35.2002 9.80859 35.2002 11.25C35.2002 12.7266 36.3956 13.8867 37.837 13.8867ZM42.9698 7.06641C42.9698 7.59375 42.5479 8.01562 42.0206 8.01562C41.4932 8.01562 41.0713 7.59375 41.0713 7.06641C41.0713 6.53906 41.4932 6.11719 42.0206 6.11719C42.5479 6.11719 42.9698 6.53906 42.9698 7.06641ZM45.6417 8.01562C45.712 9.31641 45.712 13.2188 45.6417 14.5195C45.5713 15.7852 45.2901 16.875 44.376 17.8242C43.462 18.7383 42.337 19.0195 41.0713 19.0898C39.7706 19.1602 35.8682 19.1602 34.5674 19.0898C33.3018 19.0195 32.212 18.7383 31.2627 17.8242C30.3487 16.875 30.0674 15.7852 29.9971 14.5195C29.9268 13.2188 29.9268 9.31641 29.9971 8.01562C30.0674 6.75 30.3487 5.625 31.2627 4.71094C32.212 3.79688 33.3018 3.51562 34.5674 3.44531C35.8682 3.375 39.7706 3.375 41.0713 3.44531C42.337 3.51562 43.462 3.79688 44.376 4.71094C45.2901 5.625 45.5713 6.75 45.6417 8.01562ZM43.9542 15.8906C44.376 14.8711 44.2706 12.4102 44.2706 11.25C44.2706 10.125 44.376 7.66406 43.9542 6.60938C43.6729 5.94141 43.1456 5.37891 42.4776 5.13281C41.4229 4.71094 38.962 4.81641 37.837 4.81641C36.6768 4.81641 34.2159 4.71094 33.1963 5.13281C32.4932 5.41406 31.9659 5.94141 31.6846 6.60938C31.2627 7.66406 31.3682 10.125 31.3682 11.25C31.3682 12.4102 31.2627 14.8711 31.6846 15.8906C31.9659 16.5938 32.4932 17.1211 33.1963 17.4023C34.2159 17.8242 36.6768 17.7188 37.837 17.7188C38.962 17.7188 41.4229 17.8242 42.4776 17.4023C43.1456 17.1211 43.7081 16.5938 43.9542 15.8906Z" fill="#F35C27"/>
<path d="M73.5708 6.64453C73.9927 8.12109 73.9927 11.2852 73.9927 11.2852C73.9927 11.2852 73.9927 14.4141 73.5708 15.9258C73.3599 16.7695 72.6919 17.4023 71.8833 17.6133C70.3716 18 64.395 18 64.395 18C64.395 18 58.3833 18 56.8716 17.6133C56.063 17.4023 55.395 16.7695 55.1841 15.9258C54.7622 14.4141 54.7622 11.2852 54.7622 11.2852C54.7622 11.2852 54.7622 8.12109 55.1841 6.64453C55.395 5.80078 56.063 5.13281 56.8716 4.92188C58.3833 4.5 64.395 4.5 64.395 4.5C64.395 4.5 70.3716 4.5 71.8833 4.92188C72.6919 5.13281 73.3599 5.80078 73.5708 6.64453ZM62.4263 14.1328L67.4185 11.2852L62.4263 8.4375V14.1328Z" fill="#F35C27"/>
</svg>
